<?xml version="1.0" encoding="utf-8"?>
<!-- Generator: Adobe Illustrator 24.1.3, SVG Export Plug-In . SVG Version: 6.00 Build 0)  -->
<svg version="1.1" id="Layer_1" xmlns="http://www.w3.org/2000/svg" xmlns:xlink="http://www.w3.org/1999/xlink" x="0px" y="0px"
	 viewBox="0 0 500 500" style="enable-background:new 0 0 500 500;" xml:space="preserve">
<style type="text/css">
	.st0{fill:url(#SVGID_1_);}
	.st1{fill:url(#SVGID_2_);}
	.st2{fill:url(#SVGID_3_);}
</style>
<g>
	<g>
		<linearGradient id="SVGID_1_" gradientUnits="userSpaceOnUse" x1="184.3951" y1="413.0105" x2="184.3951" y2="194.0837">
			<stop  offset="0" style="stop-color:#2E368E"/>
			<stop  offset="0.1192" style="stop-color:#423480"/>
			<stop  offset="0.5396" style="stop-color:#862D54"/>
			<stop  offset="0.8443" style="stop-color:#B02938"/>
			<stop  offset="1" style="stop-color:#C0272D"/>
		</linearGradient>
		<polygon class="st0" points="250.07,325.44 206.29,281.65 162.5,237.87 118.72,194.08 74.93,237.87 118.72,281.65 162.5,325.44 
			206.29,369.23 250.07,413.01 293.86,369.23 		"/>
		<linearGradient id="SVGID_2_" gradientUnits="userSpaceOnUse" x1="250.0732" y1="237.869" x2="250.0732" y2="88.3764">
			<stop  offset="0" style="stop-color:#2E368E"/>
			<stop  offset="0.1192" style="stop-color:#423480"/>
			<stop  offset="0.5396" style="stop-color:#862D54"/>
			<stop  offset="0.8443" style="stop-color:#B02938"/>
			<stop  offset="1" style="stop-color:#C0272D"/>
		</linearGradient>
		<path class="st1" d="M425.21,150.3l-43.79-43.79l0,0c-24.18-24.18-63.39-24.18-87.57,0l0,0l-43.79,43.79l-43.79-43.79l0,0
			c-24.18-24.18-63.39-24.18-87.57,0l0,0L74.93,150.3l-43.79,43.79l43.79,43.79l43.79-43.79l43.79-43.79l43.79,43.79l43.79,43.79
			l43.79-43.79l43.79-43.79l43.79,43.79l43.79,43.79L469,194.08L425.21,150.3z"/>
		<linearGradient id="SVGID_3_" gradientUnits="userSpaceOnUse" x1="250.0732" y1="325.4398" x2="250.0732" y2="175.9472">
			<stop  offset="0" style="stop-color:#2E368E"/>
			<stop  offset="0.1192" style="stop-color:#423480"/>
			<stop  offset="0.5396" style="stop-color:#862D54"/>
			<stop  offset="0.8443" style="stop-color:#B02938"/>
			<stop  offset="1" style="stop-color:#C0272D"/>
		</linearGradient>
		<path class="st2" d="M337.64,237.87l-43.79-43.79l0,0c-24.18-24.18-63.39-24.18-87.57,0l0,0l-43.79,43.79l-43.79,43.79
			l43.79,43.79l43.79-43.79l43.79-43.79l43.79,43.79l43.79,43.79l43.79-43.79L337.64,237.87z"/>
	</g>
</g>
</svg>
